<svg width="236" height="247" viewBox="0 0 236 247" fill="none" xmlns="http://www.w3.org/2000/svg">
<path d="M116.32 87.5957V100.885L103.441 140.711H116.32V154H84.4922V144.361L97.7812 100.885H86.0508V87.5957H116.32Z" fill="#BF4722"/>
<path d="M160.289 126.479C160.289 133.15 160.125 137.881 159.797 140.67C159.496 143.432 158.512 145.961 156.844 148.258C155.203 150.555 152.975 152.318 150.158 153.549C147.342 154.779 144.061 155.395 140.314 155.395C136.76 155.395 133.561 154.82 130.717 153.672C127.9 152.496 125.631 150.746 123.908 148.422C122.186 146.098 121.16 143.568 120.832 140.834C120.504 138.1 120.34 133.314 120.34 126.479V115.117C120.34 108.445 120.49 103.729 120.791 100.967C121.119 98.1777 122.104 95.6348 123.744 93.3379C125.412 91.041 127.654 89.2773 130.471 88.0469C133.287 86.8164 136.568 86.2012 140.314 86.2012C143.869 86.2012 147.055 86.7891 149.871 87.9648C152.715 89.1133 154.998 90.8496 156.721 93.1738C158.443 95.498 159.469 98.0273 159.797 100.762C160.125 103.496 160.289 108.281 160.289 115.117V126.479ZM143.021 104.658C143.021 101.568 142.844 99.5996 142.488 98.752C142.16 97.877 141.463 97.4395 140.396 97.4395C139.494 97.4395 138.797 97.7949 138.305 98.5059C137.84 99.1895 137.607 101.24 137.607 104.658V135.666C137.607 139.521 137.758 141.9 138.059 142.803C138.387 143.705 139.125 144.156 140.273 144.156C141.449 144.156 142.201 143.637 142.529 142.598C142.857 141.559 143.021 139.084 143.021 135.174V104.658Z" fill="#222222"/>
<path d="M152.713 156.596V209.711H163.213V223H135.445V156.596H152.713Z" fill="#BF4722"/>
<path d="M87.6934 170.969V187.006H82.7715C80.4746 187.006 79.0117 187.211 78.3828 187.621C77.7539 188.031 77.4395 188.715 77.4395 189.672C77.4395 190.711 77.8633 191.504 78.7109 192.051C79.5586 192.57 80.8437 192.83 82.5664 192.83C84.7812 192.83 86.4492 192.529 87.5703 191.928C88.6914 191.354 90.0449 189.727 91.6309 187.047C96.1973 179.363 99.9434 174.523 102.869 172.527C105.795 170.531 110.512 169.533 117.02 169.533C121.75 169.533 125.236 170.094 127.479 171.215C129.721 172.309 131.607 174.441 133.139 177.613C134.643 180.785 135.395 184.477 135.395 188.688C135.395 193.309 134.52 197.26 132.77 200.541C131.02 203.795 128.791 205.928 126.084 206.939C123.377 207.951 119.535 208.457 114.559 208.457H110.211V192.42H118.291C120.779 192.42 122.379 192.201 123.09 191.764C123.801 191.299 124.156 190.492 124.156 189.344C124.156 188.195 123.705 187.348 122.803 186.801C121.9 186.227 120.561 185.939 118.783 185.939C114.873 185.939 112.316 186.473 111.113 187.539C109.91 188.633 107.9 191.326 105.084 195.619C102.24 199.912 100.176 202.756 98.8906 204.15C97.6055 205.545 95.8281 206.707 93.5586 207.637C91.2891 208.539 88.3906 208.99 84.8633 208.99C79.7773 208.99 76.0586 208.348 73.707 207.063C71.3555 205.75 69.5234 203.645 68.2109 200.746C66.8711 197.848 66.2012 194.348 66.2012 190.246C66.2012 185.762 66.9258 181.947 68.375 178.803C69.8242 175.631 71.6562 173.539 73.8711 172.527C76.0586 171.488 79.791 170.969 85.0684 170.969H87.6934Z" fill="#222222"/>
<path d="M11.4667 243.451V48.5173H63.8693V69.616H43.9173V222.352H63.8693V243.451H11.4667Z" fill="#A5A5A5"/>
<path d="M172.027 243.451V222.352H191.979V69.616H172.027V48.5173H224.429V243.451H172.027Z" fill="#A5A5A5"/>
</svg>
