<svg width="228" height="244" viewBox="0 0 228 244" fill="none" xmlns="http://www.w3.org/2000/svg">
<path d="M119.32 87.5957V100.885L106.441 140.711H119.32V154H87.4922V144.361L100.781 100.885H89.0508V87.5957H119.32Z" fill="#BF4722"/>
<path d="M163.289 126.479C163.289 133.15 163.125 137.881 162.797 140.67C162.496 143.432 161.512 145.961 159.844 148.258C158.203 150.555 155.975 152.318 153.158 153.549C150.342 154.779 147.061 155.395 143.314 155.395C139.76 155.395 136.561 154.82 133.717 153.672C130.9 152.496 128.631 150.746 126.908 148.422C125.186 146.098 124.16 143.568 123.832 140.834C123.504 138.1 123.34 133.314 123.34 126.479V115.117C123.34 108.445 123.49 103.729 123.791 100.967C124.119 98.1777 125.104 95.6348 126.744 93.3379C128.412 91.041 130.654 89.2773 133.471 88.0469C136.287 86.8164 139.568 86.2012 143.314 86.2012C146.869 86.2012 150.055 86.7891 152.871 87.9648C155.715 89.1133 157.998 90.8496 159.721 93.1738C161.443 95.498 162.469 98.0273 162.797 100.762C163.125 103.496 163.289 108.281 163.289 115.117V126.479ZM146.021 104.658C146.021 101.568 145.844 99.5996 145.488 98.752C145.16 97.877 144.463 97.4395 143.396 97.4395C142.494 97.4395 141.797 97.7949 141.305 98.5059C140.84 99.1895 140.607 101.24 140.607 104.658V135.666C140.607 139.521 140.758 141.9 141.059 142.803C141.387 143.705 142.125 144.156 143.273 144.156C144.449 144.156 145.201 143.637 145.529 142.598C145.857 141.559 146.021 139.084 146.021 135.174V104.658Z" fill="#222222"/>
<path d="M155.713 156.596V209.711H166.213V223H138.445V156.596H155.713Z" fill="#BF4722"/>
<path d="M90.6934 170.969V187.006H85.7715C83.4746 187.006 82.0117 187.211 81.3828 187.621C80.7539 188.031 80.4395 188.715 80.4395 189.672C80.4395 190.711 80.8633 191.504 81.7109 192.051C82.5586 192.57 83.8437 192.83 85.5664 192.83C87.7812 192.83 89.4492 192.529 90.5703 191.928C91.6914 191.354 93.0449 189.727 94.6309 187.047C99.1973 179.363 102.943 174.523 105.869 172.527C108.795 170.531 113.512 169.533 120.02 169.533C124.75 169.533 128.236 170.094 130.479 171.215C132.721 172.309 134.607 174.441 136.139 177.613C137.643 180.785 138.395 184.477 138.395 188.688C138.395 193.309 137.52 197.26 135.77 200.541C134.02 203.795 131.791 205.928 129.084 206.939C126.377 207.951 122.535 208.457 117.559 208.457H113.211V192.42H121.291C123.779 192.42 125.379 192.201 126.09 191.764C126.801 191.299 127.156 190.492 127.156 189.344C127.156 188.195 126.705 187.348 125.803 186.801C124.9 186.227 123.561 185.939 121.783 185.939C117.873 185.939 115.316 186.473 114.113 187.539C112.91 188.633 110.9 191.326 108.084 195.619C105.24 199.912 103.176 202.756 101.891 204.15C100.605 205.545 98.8281 206.707 96.5586 207.637C94.2891 208.539 91.3906 208.99 87.8633 208.99C82.7773 208.99 79.0586 208.348 76.707 207.063C74.3555 205.75 72.5234 203.645 71.2109 200.746C69.8711 197.848 69.2012 194.348 69.2012 190.246C69.2012 185.762 69.9258 181.947 71.375 178.803C72.8242 175.631 74.6562 173.539 76.8711 172.527C79.0586 171.488 82.791 170.969 88.0684 170.969H90.6934Z" fill="#222222"/>
<path d="M11.4667 243.451V48.5173H63.8693V69.616H43.9173V222.352H63.8693V243.451H11.4667Z" fill="#A5A5A5"/>
<path d="M175.027 243.451V222.352H194.979V69.616H175.027V48.5173H227.429V243.451H175.027Z" fill="#A5A5A5"/>
</svg>
